<svg xmlns="http://www.w3.org/2000/svg" viewBox="0 0 24 24"><defs><style>.\33 f9356b6-5c39-40eb-981e-73e2948eb4c3{fill:#fff;}.\31 bee11a0-f1f3-4daa-b222-fd0726ec81b3{fill:none;stroke:#006837;stroke-linecap:round;stroke-linejoin:round;stroke-width:2px;}</style></defs><rect class="3f9356b6-5c39-40eb-981e-73e2948eb4c3" width="23" height="23" rx="2.5" ry="2.5"/><path class="1bee11a0-f1f3-4daa-b222-fd0726ec81b3" d="M7.6,20H4.76a2,2,0,0,1-2-2V6a2,2,0,0,1,2-2h12a2,2,0,0,1,2,2v4"/><path class="1bee11a0-f1f3-4daa-b222-fd0726ec81b3" d="M14.76,2V6"/><path class="1bee11a0-f1f3-4daa-b222-fd0726ec81b3" d="M6.76,2V6"/><path class="1bee11a0-f1f3-4daa-b222-fd0726ec81b3" d="M2.76,8.39h16"/><path class="1bee11a0-f1f3-4daa-b222-fd0726ec81b3" d="M15.2,19l-1.07,1.07,1.07,1.07"/><path class="1bee11a0-f1f3-4daa-b222-fd0726ec81b3" d="M14.14,20H19a1.07,1.07,0,0,0,.93-1.47L19.59,18"/><path class="1bee11a0-f1f3-4daa-b222-fd0726ec81b3" d="M13.35,15.76,13,14.3l-1.46.39"/><path class="1bee11a0-f1f3-4daa-b222-fd0726ec81b3" d="M13,14.3l-2.4,4.16a1.07,1.07,0,0,0,.8,1.54H12"/><path class="1bee11a0-f1f3-4daa-b222-fd0726ec81b3" d="M17.05,15.76l1.46.39.39-1.46"/><path class="1bee11a0-f1f3-4daa-b222-fd0726ec81b3" d="M18.51,16.15,16.11,12a1.07,1.07,0,0,0-1.74-.07l-.32.52"/></svg>